<?xml version="1.0" standalone="no"?>
<!DOCTYPE svg PUBLIC "-//W3C//DTD SVG 20010904//EN"
 "http://www.w3.org/TR/2001/REC-SVG-20010904/DTD/svg10.dtd">
<svg version="1.0" xmlns="http://www.w3.org/2000/svg"
 width="700.000000pt" height="700.000000pt" viewBox="0 0 700.000000 700.000000"
 preserveAspectRatio="xMidYMid meet">
<metadata>
Created by potrace 1.11, written by Peter Selinger 2001-2013
</metadata>
<g transform="translate(0.000000,700.000000) scale(0.100000,-0.100000)"
fill="#000000" stroke="none">
<path d="M3350 6624 c-121 -8 -290 -26 -370 -40 -1304 -221 -2331 -1243 -2559
-2544 -34 -194 -44 -316 -44 -540 0 -224 10 -346 44 -540 110 -630 415 -1216
869 -1670 336 -336 746 -592 1195 -746 856 -296 1812 -201 2591 257 648 380
1136 976 1380 1684 316 915 186 1934 -347 2735 -128 191 -245 336 -398 489
-496 497 -1152 816 -1841 895 -130 15 -424 26 -520 20z m345 -75 c903 -61
1709 -496 2249 -1216 335 -446 527 -934 597 -1518 15 -128 15 -489 0 -625 -49
-434 -169 -816 -372 -1178 -408 -729 -1087 -1255 -1893 -1467 -1547 -407
-3142 448 -3667 1965 -111 319 -162 634 -162 990 0 620 167 1175 509 1692 558
842 1489 1347 2519 1366 39 1 137 -3 220 -9z"/>
<path d="M4925 5105 c-5 -2 -22 -6 -37 -9 -72 -16 -131 -107 -131 -201 -1 -75
15 -124 59 -181 l35 -45 -47 -21 c-107 -47 -221 -61 -479 -61 -217 0 -266 4
-515 36 -392 52 -563 67 -745 67 -393 0 -619 -77 -710 -241 -27 -49 -30 -62
-30 -151 0 -104 9 -128 68 -172 43 -32 131 -33 187 -4 100 54 134 209 76 348
-39 92 -39 92 21 112 89 30 232 41 437 35 162 -5 432 -30 444 -41 4 -4 -570
-2163 -600 -2256 -26 -82 -83 -198 -111 -229 -56 -61 -143 -94 -286 -110 -88
-10 -101 -17 -101 -61 l0 -25 222 8 c123 4 381 4 573 1 193 -4 352 -6 355 -6
6 1 20 65 15 70 -2 2 -47 7 -101 13 -119 11 -180 37 -207 89 -37 70 -29 104
293 1315 167 627 305 1142 306 1143 1 2 51 -1 111 -8 138 -15 433 -15 543 -1
342 47 550 195 550 394 0 68 -17 112 -56 149 -35 32 -106 54 -139 43z"/>
</g>
</svg>
